<svg xmlns="http://www.w3.org/2000/svg" viewBox="0 0 1035 723"><defs><style>.cls-1,.cls-10{fill:#b6db9f;}.cls-14,.cls-2,.cls-32{fill:none;}.cls-10,.cls-11,.cls-12,.cls-13,.cls-14,.cls-15,.cls-16,.cls-17,.cls-18,.cls-19,.cls-2,.cls-20,.cls-24,.cls-25,.cls-26,.cls-27,.cls-28,.cls-29,.cls-3,.cls-30,.cls-31,.cls-32,.cls-33,.cls-34,.cls-35,.cls-36,.cls-37,.cls-38,.cls-39,.cls-4,.cls-40,.cls-41,.cls-46,.cls-47,.cls-48,.cls-49,.cls-5,.cls-50,.cls-51,.cls-6,.cls-7,.cls-8,.cls-9{stroke:#000;}.cls-10,.cls-11,.cls-12,.cls-13,.cls-14,.cls-15,.cls-16,.cls-17,.cls-18,.cls-19,.cls-2,.cls-20,.cls-21,.cls-22,.cls-24,.cls-25,.cls-26,.cls-27,.cls-28,.cls-29,.cls-3,.cls-30,.cls-31,.cls-32,.cls-33,.cls-34,.cls-35,.cls-36,.cls-37,.cls-38,.cls-39,.cls-4,.cls-40,.cls-41,.cls-42,.cls-43,.cls-44,.cls-45,.cls-46,.cls-47,.cls-48,.cls-49,.cls-5,.cls-50,.cls-51,.cls-6,.cls-7,.cls-8,.cls-9{stroke-miterlimit:10;}.cls-2{stroke-width:3px;}.cls-3{fill:#f9f9fa;}.cls-10,.cls-11,.cls-12,.cls-13,.cls-14,.cls-15,.cls-17,.cls-18,.cls-19,.cls-20,.cls-21,.cls-22,.cls-3,.cls-4,.cls-5,.cls-6,.cls-7,.cls-8,.cls-9{stroke-width:2px;}.cls-28,.cls-4{fill:#fff;}.cls-5{fill:#ee646a;}.cls-45,.cls-7{fill:#76b175;}.cls-16,.cls-8{fill:#a6998b;}.cls-9{fill:#f9c864;}.cls-11{fill:#ec636b;}.cls-12{fill:#f9ca65;}.cls-13{fill:#8a7524;}.cls-15{fill:#8a7625;}.cls-17{fill:#cdc0b0;}.cls-18{fill:#77b276;}.cls-19{fill:#77b376;}.cls-20{fill:#a3958c;}.cls-21{fill:#c9bebe;stroke:#c9bebe;}.cls-22{fill:#cfc7c0;stroke:#cfc7c0;}.cls-23{opacity:0.5;}.cls-24{fill:#d9aa83;}.cls-25{fill:#fff4e0;}.cls-26{fill:#fbe89b;}.cls-27,.cls-42{fill:#010101;}.cls-29{fill:#e5be53;}.cls-30{fill:#b7dca0;}.cls-31{fill:#fffffe;}.cls-33{fill:#f2f2f2;}.cls-34{fill:#090909;}.cls-35{fill:#f4d07d;}.cls-36{fill:#e7e5e4;}.cls-37{fill:#8e7529;}.cls-38{fill:#f4e8d5;}.cls-39{fill:#c08a38;}.cls-40{fill:#c2b8a5;}.cls-41{fill:#cbbfad;}.cls-42,.cls-43,.cls-44,.cls-45{stroke:#010101;}.cls-43{fill:#e2bc9c;}.cls-44{fill:#ffde78;}.cls-47{fill:#ed6569;}.cls-48{fill:#050202;}.cls-49{fill:#fefefe;}.cls-50{fill:#ebb96f;}.cls-51{fill:#fcc66b;}</style></defs><title>toggl 3rd svg color</title><g id="bg"><rect class="cls-1" width="1035" height="723"/><rect class="cls-2" x="1.12" width="1035" height="723"/></g><g id="books"><path class="cls-3" d="M60.29,347h38l122-172.5-36-.5Z"/><path class="cls-3" d="M171.29,319l46.5-.5,120-172.5h-42.5Z"/><path class="cls-3" d="M96.29,347.5h75.5l121-172.5-72.5-.5Z"/><path class="cls-3" d="M220.29,289h61l124-172.58-61-.42Z"/><path class="cls-3" d="M283.29,319h61l124-172.58-61-.42Z"/><path class="cls-3" d="M345.29,347h61l124-172.58-61-.42Z"/><path class="cls-3" d="M406.68,346.91h35.61L566.81,174.15l-36.13-.24Z"/><path class="cls-3" d="M499.71,319h55.08l124-173H623.71Z"/><path class="cls-3" d="M555.1,319h45.69l124-173H679.1Z"/><path class="cls-4" d="M601,346.58h45.69l124-173H725Z"/><path class="cls-4" d="M645.19,319h69L838.29,146h-69.1Z"/><path class="cls-4" d="M714.2,346.58h52.59l123.5-173H838.2Z"/><path class="cls-4" d="M766.38,346.58h30.91l124-173H890.38Z"/><path class="cls-4" d="M796.74,346.58h30.91l124-173H920.74Z"/><path class="cls-4" d="M827.16,346.58h30.92l124-173H951.16Z"/><path class="cls-5" d="M858.08,346.58l-.63,281.75Q919.88,541.67,982.29,455l-.21-281.42Z"/><path class="cls-3" d="M443.62,346.66l54.67-.16q59.51-86.5,119-173l-49.67.16Z"/><rect class="cls-4" x="60.29" y="347" width="36" height="281.33"/><rect class="cls-6" x="96.29" y="347" width="75" height="281.33"/><rect class="cls-7" x="172.63" y="319" width="46.33" height="309.33"/><rect class="cls-8" x="283.29" y="319" width="62" height="309.33"/><rect class="cls-8" x="343.29" y="347" width="62" height="281.33"/><rect class="cls-9" x="405.29" y="347.5" width="38.34" height="280.83"/><rect class="cls-4" x="443.62" y="347.5" width="56.08" height="280.83"/><rect class="cls-10" x="499.02" y="319" width="56.08" height="309.33"/><rect class="cls-11" x="555.1" y="319" width="45.93" height="309.33"/><rect class="cls-12" x="601.03" y="346.58" width="45.93" height="281.76"/><rect class="cls-8" x="645.19" y="319" width="69.01" height="309.33"/><rect class="cls-13" x="714.2" y="346.58" width="52.18" height="281.76"/><rect class="cls-5" x="766.38" y="346.58" width="30.36" height="281.76"/><rect class="cls-5" x="796.74" y="346.58" width="30.36" height="281.76"/><rect class="cls-5" x="827.1" y="346.58" width="30.36" height="281.76"/><path class="cls-14" d="M83.29,532a29.75,29.75,0,0,1-6.5-14c-.44-2.73-.91-5.9,1-7.5s4.69-.74,5.5-.5"/><path class="cls-14" d="M83.29,510.08a29.79,29.79,0,0,1-6.5-14c-.44-2.73-.91-5.9,1-7.5s4.69-.75,5.5-.5"/><path class="cls-14" d="M83.29,487.67a29.83,29.83,0,0,1-6.5-14c-.44-2.73-.91-5.9,1-7.5s4.69-.75,5.5-.5"/><path class="cls-14" d="M83.29,465.75a29.83,29.83,0,0,1-6.5-14c-.44-2.73-.91-5.9,1-7.5s4.69-.75,5.5-.5"/><path class="cls-14" d="M83.29,443.33a29.75,29.75,0,0,1-6.5-14c-.44-2.72-.91-5.9,1-7.5s4.69-.74,5.5-.5"/><path class="cls-14" d="M83.29,421.41a29.75,29.75,0,0,1-6.5-14c-.44-2.72-.91-5.9,1-7.5s4.69-.74,5.5-.5"/><path class="cls-14" d="M83.29,399a29.75,29.75,0,0,1-6.5-14c-.44-2.73-.91-5.9,1-7.5s4.69-.74,5.5-.5"/><rect class="cls-10" x="60.29" y="561.67" width="36" height="66.67"/><rect class="cls-14" x="68.96" y="595" width="19.33" height="19.33"/><circle class="cls-9" cx="134.29" cy="385.5" r="25"/><circle class="cls-9" cx="134.29" cy="385.5" r="15.75"/><rect class="cls-15" x="96.29" y="495.67" width="75" height="132.67"/><rect class="cls-4" x="128.29" y="432.13" width="12" height="166.87"/><rect class="cls-16" x="292.79" y="333" width="36.83" height="9.33"/><rect class="cls-16" x="292.79" y="346.58" width="36.83" height="9.33"/><rect class="cls-17" x="293.67" y="399" width="18.67" height="52"/><rect class="cls-17" x="313.24" y="399" width="18.67" height="52"/><rect class="cls-17" x="293.67" y="451" width="18.67" height="52"/><rect class="cls-17" x="313.24" y="451" width="18.67" height="52"/><rect class="cls-17" x="293.67" y="503" width="18.67" height="52"/><rect class="cls-17" x="313.24" y="503" width="18.67" height="52"/><rect class="cls-17" x="293.67" y="555" width="18.67" height="52"/><rect class="cls-17" x="313.24" y="555" width="18.67" height="52"/><polygon class="cls-6" points="345.29 435 405.29 468.33 405.29 628.33 345.29 628.33 345.29 435"/><rect class="cls-9" x="416.96" y="360.5" width="14" height="38.5"/><rect class="cls-4" x="405.29" y="591" width="38.34" height="37.33"/><rect class="cls-11" x="453.63" y="355.91" width="33.12" height="215.76"/><path class="cls-14" d="M469,555c4.6-8.74,5.05-15.58,4.61-20.22-.94-10-6.35-12.68-5.78-21.78s6.11-9.45,6.5-18c.49-10.57-7.84-12.57-7.5-23,.31-9.34,7.08-10.39,7-20-.06-8.33-5.17-9.09-5.5-18-.34-9.21,5-10.24,5-19.5,0-9.05-5.21-11.24-6-20.5-.63-7.46,2-14,5-19"/><rect class="cls-18" x="509.46" y="330.26" width="34.83" height="57.53"/><rect class="cls-18" x="516.25" y="341.47" width="21.26" height="35.12"/><rect class="cls-18" x="499.02" y="476.46" width="56.08" height="114.54"/><rect class="cls-4" x="566.81" y="333" width="19.49" height="32.67"/><rect class="cls-4" x="566.81" y="366.33" width="19.49" height="32.67"/><rect class="cls-4" x="566.81" y="399" width="19.49" height="32.67"/><rect class="cls-13" x="608.29" y="359.03" width="28" height="121.31"/><rect class="cls-4" x="608.29" y="480.33" width="28" height="18.54"/><rect class="cls-17" x="657.45" y="333" width="42" height="42"/><path class="cls-6" d="M647,540.33c.21-1.57,1.95-12.68,12-18.66a25.07,25.07,0,0,1,14.67-3.34A226.21,226.21,0,0,1,684.29,461c5.05-15.58,7.49-27.36,16.67-38.67a73.89,73.89,0,0,1,13.24-12.66V628.33H647Z"/><path class="cls-14" d="M655.79,393a18.57,18.57,0,0,1,9-8c1.67-.64,3.83-1.48,5.5-.5,2.13,1.25,2.84,5.07,1.5,9.5"/><path class="cls-14" d="M671.35,393a18.61,18.61,0,0,1,9-8c1.67-.64,3.83-1.48,5.5-.5,2.13,1.25,2.84,5.07,1.5,9.5"/><path class="cls-14" d="M688,393a18.61,18.61,0,0,1,9-8c1.67-.64,3.83-1.48,5.5-.5,2.13,1.25,2.84,5.07,1.5,9.5"/><path class="cls-14" d="M750.29,483a51.18,51.18,0,0,1-14.66-6c-3.57-2.17-6.85-4.22-6.67-6.67.06-.78.53-2.43,6.67-5.33A56.1,56.1,0,0,1,751,460.33"/><path class="cls-14" d="M750.29,460.33a50.89,50.89,0,0,1-14.66-6c-3.57-2.17-6.85-4.22-6.67-6.66.06-.78.53-2.43,6.67-5.34A56.15,56.15,0,0,1,751,437.67"/><path class="cls-14" d="M750.29,437.67a51.18,51.18,0,0,1-14.66-6c-3.57-2.18-6.85-4.23-6.67-6.67.06-.78.53-2.43,6.67-5.33A55.76,55.76,0,0,1,751,415"/><path class="cls-14" d="M750.29,415a51.18,51.18,0,0,1-14.66-6c-3.57-2.17-6.85-4.22-6.67-6.67.06-.78.53-2.43,6.67-5.33A56.1,56.1,0,0,1,751,392.33"/><path class="cls-14" d="M750.29,392.33a50.89,50.89,0,0,1-14.66-6c-3.57-2.17-6.85-4.22-6.67-6.66.06-.78.53-2.43,6.67-5.34A56.15,56.15,0,0,1,751,369.67"/><circle class="cls-14" cx="740.54" cy="597.25" r="14.75"/><rect class="cls-14" x="775.79" y="355.91" width="11" height="79.59"/><rect class="cls-14" x="806.42" y="355.91" width="11" height="94.84"/><rect class="cls-14" x="836.77" y="355.91" width="11" height="108.59"/><rect class="cls-4" x="766.38" y="494.67" width="30.36" height="133.67"/><rect class="cls-4" x="796.74" y="525.67" width="30.36" height="102.67"/><rect class="cls-4" x="827.1" y="555.67" width="30.36" height="72.67"/><polygon class="cls-4" points="877.63 355.91 961.63 241 961.63 341.47 877.63 453.67 877.63 355.91"/><path class="cls-19" d="M877.63,390.35c1.7-3.1,4.18-7.49,7.33-12.68,7.06-11.64,10.59-17.45,14.67-21.34,9.19-8.75,19.74-11.58,24-12.66a58.51,58.51,0,0,1,22-1.34l-68,97.32Z"/><path class="cls-19" d="M918.47,345.17a194,194,0,0,1,6.32-22.67c5.39-15.56,10.22-29.06,22-41A71.25,71.25,0,0,1,961.63,270v51.8l-16,20.52a74,74,0,0,0-27.16,2.84Z"/><path class="cls-14" d="M961.63,321.81l-84,117.84v14l84-112.2Z"/><path class="cls-4" d="M857.45,555.67l124.69-173.5.15,72.83q-62.41,86.67-124.84,173.33Z"/><path class="cls-14" d="M405.29,116v32.67"/><path class="cls-14" d="M724.79,146v27.58"/><path class="cls-20" d="M838.29,146v29.4L714.2,346.58V319Z"/><ellipse class="cls-11" cx="662.91" cy="246.29" rx="151.33" ry="11.43" transform="translate(79.7 646.26) rotate(-54.82)"/><path class="cls-12" d="M405.29,116.42q1,14.79,2,29.58l-124,173q-1-15-2-30Z"/><path class="cls-8" d="M468.29,146.42l1,27.58-124,173V319Z"/><path class="cls-21" d="M71.63,344,190.75,177.42"/><path class="cls-21" d="M80.73,344,199.86,177.42"/><path class="cls-21" d="M90.48,344,209.61,177.42"/><path class="cls-21" d="M112,343.79,231.11,177.21"/><path class="cls-21" d="M121.09,343.79,240.21,177.21"/><path class="cls-21" d="M130.84,343.79,250,177.21"/><path class="cls-21" d="M141.85,343.79,261,177.21"/><path class="cls-21" d="M182.16,315.79,301.29,149.21"/><path class="cls-21" d="M192.23,315.79,311.36,149.21"/><path class="cls-21" d="M229.62,285.79,348.75,119.21"/><path class="cls-21" d="M241.72,285.79,360.85,119.21"/><path class="cls-21" d="M252.58,285.79,371.71,119.21"/><path class="cls-21" d="M264.68,285.79,383.81,119.21"/><path class="cls-21" d="M275.57,285.79,394.69,119.21"/><path class="cls-21" d="M292.79,315.17,411.92,148.59"/><path class="cls-21" d="M303.68,315.17,422.8,148.59"/><path class="cls-21" d="M315.54,315.17,434.66,148.59"/><path class="cls-21" d="M326.42,315.17,445.54,148.59"/><path class="cls-21" d="M338.94,315.17,458.06,148.59"/><path class="cls-21" d="M355.16,343.88,474.28,177.3"/><path class="cls-21" d="M366,343.88,485.16,177.3"/><path class="cls-21" d="M377.9,343.88,497,177.3"/><path class="cls-21" d="M388.78,343.88,507.91,177.3"/><path class="cls-21" d="M401.3,343.88,520.42,177.3"/><path class="cls-21" d="M415.23,343.88,534.35,177.3"/><path class="cls-21" d="M426.11,343.88,545.23,177.3"/><path class="cls-21" d="M438,343.88,557.09,177.3"/><path class="cls-21" d="M453.12,343.37,572.24,176.79"/><path class="cls-21" d="M465.64,343.37,584.76,176.79"/><path class="cls-21" d="M477,343.88,596.07,177.3"/><path class="cls-5" d="M171.29,519.33a72.61,72.61,0,0,1,7-27.33,75.62,75.62,0,0,1,22-26.67,76.48,76.48,0,0,1,17.34-9.94V628.33H171.29Z"/><path class="cls-14" d="M190,443c3.8-2.72,8.68-7.07,8.33-12-.37-5.31-9.7-6.45-9.66-10.67,0-4.44,9.76-5.62,10.15-10.59s-9.39-7.41-9.11-12.78c.26-4.92,8.62-5.87,9-11s-8.12-7.09-8-12.67c.11-5.23,7.63-6.48,7.66-11.66,0-5.51-8.45-7.85-7.55-12.36.57-2.86,4.22-3.18,6.22-8a13.23,13.23,0,0,0,1-5"/><path class="cls-22" d="M726.79,342l119-164.5"/><path class="cls-22" d="M736.41,343.24l119-164.5"/><path class="cls-22" d="M747.61,342l119-164.5"/><path class="cls-22" d="M757.23,343.24l119-164.5"/><path class="cls-22" d="M778,342,897,177.5"/><path class="cls-22" d="M787.58,343.24l119-164.5"/><path class="cls-22" d="M809.88,342l119-164.5"/><path class="cls-22" d="M819.5,343.24l119-164.5"/><path class="cls-22" d="M840.31,342l119-164.5"/><path class="cls-22" d="M849.93,343.24l119-164.5"/><path class="cls-22" d="M696.24,314.13l119-164.5"/><path class="cls-22" d="M705.86,315.37l119-164.5"/><path class="cls-22" d="M677,314.13l119-164.5"/><path class="cls-22" d="M611.46,341.67,730.29,179.5"/><path class="cls-22" d="M623,341.67,741.86,179.5"/><path class="cls-22" d="M686.6,315.37l119-164.5"/><path class="cls-22" d="M655.09,314.13l119-164.5"/><path class="cls-22" d="M664.71,315.37l119-164.5"/><path class="cls-3" d="M499.71,318.38h55.08l124-173H623.71Z"/><path class="cls-3" d="M171.29,318.38l46.5-.5,120-172.5h-42.5Z"/><path class="cls-3" d="M220.29,289h61l124-172.58-61-.42Z"/><rect class="cls-12" x="220.29" y="290" width="63" height="339.33"/><rect class="cls-12" x="233.63" y="305.33" width="32.67" height="211.23"/><rect class="cls-4" x="220.29" y="533" width="63" height="96.33"/><rect class="cls-12" x="226.96" y="600" width="46" height="19.33"/><path class="cls-21" d="M181.54,315.17,300.67,148.59"/><path class="cls-21" d="M190.4,315.17,309.52,148.59"/><path class="cls-21" d="M241.1,285.79,360.23,119.21"/><path class="cls-21" d="M229.62,285.79,348.75,119.21"/><path class="cls-21" d="M250.85,285.79,370,119.21"/><path class="cls-21" d="M261.86,285.79,381,119.21"/><path class="cls-21" d="M273.55,285.79,392.68,119.21"/><path class="cls-21" d="M201.79,314.25l14.75-22"/><path class="cls-21" d="M211.29,313.75,218,302.5"/><path class="cls-21" d="M506.62,315.17,625.74,148.59"/><path class="cls-21" d="M517.5,315.17,636.62,148.59"/><path class="cls-21" d="M529.36,315.17,648.49,148.59"/><path class="cls-21" d="M540.24,315.17,659.37,148.59"/><path class="cls-21" d="M552.76,315.17,671.88,148.59"/><path class="cls-21" d="M563.55,315.17,682.68,148.59"/><path class="cls-21" d="M574.44,315.17,693.56,148.59"/><path class="cls-21" d="M586.3,315.17,705.42,148.59"/><path class="cls-21" d="M597.18,315.17,716.3,148.59"/></g><g id="shadow"><path class="cls-23" d="M282.84,260.39c-1.56,1.15-3.73,2.79-6.26,4.82-6.07,4.87-9.1,7.35-8.95,9.12.28,3.5,7.39,6.67,13.33,7,4.81.27,6.39-1.46,9.67,0,3.1,1.39,2.95,3.5,7,6.67,1.92,1.51,7,5,8.66,3.67,2.2-1.7-1.46-11.43-6.66-18.34A41.54,41.54,0,0,0,282.84,260.39Z"/><path class="cls-23" d="M370,338.35c4.19-1,9.49.45,9.9,2.74S376,346.42,372,347c-3.6.52-8.28-.76-8.67-3S366.69,339.16,370,338.35Z"/><path class="cls-23" d="M328.46,179.69c-1.2.73-6.28,3.82-6.49,9.08A10.26,10.26,0,0,0,327.5,198c2.84,1.4,4.14,0,12.79-.29,8.83-.32,10.83,1,11.67,1.66a23.58,23.58,0,0,1,4.33,5.34c1.91,2.91,2,4.07,3.34,4.66,2.19,1,5.9-.43,7.33-2.66,3.36-5.25-3.63-18.35-14-24.67C346.73,178.2,336.21,175,328.46,179.69Z"/><path class="cls-23" d="M371.65,220.11a11.28,11.28,0,0,0-5,2.89L381,230c4-.87,4.93-2,5.08-2.84C386.56,224.21,378.56,218.37,371.65,220.11Z"/><path class="cls-23" d="M406,235.33c-.53,1.16-4,9,0,16.67.72,1.39,3.4,6.59,9.14,8.05,7.9,2,14.27-4.92,14.94-5.66,3.57-4,6.26-10.85,3.92-15.72C430.84,232.18,418.63,228.81,406,235.33Z"/><path class="cls-23" d="M521.63,179.33c-5.1,1.22-10.11,7.25-9,13,1.37,7.12,11.17,8.8,12.33,9,5.25.9,13.07-.21,14.67-4.33C542,190.88,531,177.1,521.63,179.33Z"/><path class="cls-23" d="M507.3,301.43c1,1.11,3,2.51,22.93-1.37,13.11-2.55,16.93-4.07,19.4-7.73.58-.86,3.34-4.95,1.94-8.22-3.65-8.6-35.25-10.1-43.61,3.89C505.54,292,504.52,298.29,507.3,301.43Z"/><path class="cls-23" d="M617.26,323.93c-2.24,2.75.8,8.33.93,8.57,3,5.41,9.21,6.89,11.77,7.5a25.23,25.23,0,0,0,15.23-1.33V324a151,151,0,0,1-16.23-.67C622.29,322.7,618.9,321.92,617.26,323.93Z"/><path class="cls-23" d="M706.76,233.1c3.1,2.18,2,8.8,1.2,11.57-.59,2.06-2.11,7.33-7,9a11,11,0,0,1-8.31-.89c-1.35-1.31-4.19-4.47-4-8.45C689,236,702.29,230,706.76,233.1Z"/><path class="cls-23" d="M668.63,146a92.15,92.15,0,0,0,15,0c.62,3.46.84,8.22-1.67,12.33s-5.44,3.66-9.67,8.67c-2.17,2.57-1.85,3.24-6.66,12.33-3.49,6.6-5.25,9.9-6,9.67-1.81-.56,7.37-18,.66-31.67-5.77-11.76-20.65-15.2-20-16.66S652.31,144.67,668.63,146Z"/><path class="cls-23" d="M405.29,148.67c-.75.7-7.28,6.88-5.5,12.33.59,1.8,2,3.17,9.36,6.68,11,5.25,16.55,7.87,18.5,5.93,2.27-2.25-.7-9.16-3.36-13.11C418.44,151.78,408.73,149.36,405.29,148.67Z"/><path class="cls-23" d="M498.17,190.91c-2,1.5-7.8,5.74-7.08,9.9.93,5.3,11.2,3.75,20.54,13.52,3.3,3.46,4.69,6.45,8,6.67s4.6-2.52,9.52-4.63c2.8-1.2,4.17-1.08,12.59-1.7,15.92-1.19,17.2-2.08,18-2.85,3.62-3.65,3-11.89-.08-17.39C550.64,178.5,516.25,177.63,498.17,190.91Z"/></g><g id="ppl"><circle class="cls-24" cx="667.33" cy="97.72" r="10.12" transform="translate(522.55 756.44) rotate(-85.93)"/><circle class="cls-25" cx="696.37" cy="189.75" r="9.78" transform="translate(457.73 870.92) rotate(-85.93)"/><circle class="cls-26" cx="650.29" cy="280.33" r="9.78" transform="translate(324.56 909.11) rotate(-85.93)"/><circle class="cls-26" cx="542.69" cy="232.5" r="9.39" transform="translate(272.31 757.35) rotate(-85.93)"/><circle class="cls-26" cx="438.94" cy="94.5" r="9.39"/><path class="cls-24" d="M627.79,160c6.94-.72,9.3-2.65,10-4.5,1-2.7-1.53-5.07-.25-7.75,1.19-2.48,4.25-2.25,7.75-3.75,8.18-3.5,11.34-13.21,12-15.25a28.52,28.52,0,0,0,0-17.25,81.45,81.45,0,0,0-8.58,9.17,60.7,60.7,0,0,0-7.92,11.83c-4.45,9.1-3.4,14.25-7.75,16.25-1.58.73-3.67.93-5.5,3a5.48,5.48,0,0,0,.25,8.25Z"/><path class="cls-27" d="M659.29,198.5H647.54a135.16,135.16,0,0,1,.25-18.75c.82-9.7,2.24-13.74,3.5-16.5a37.6,37.6,0,0,1,4-6.75l-11-9q-.81,8.55-1.75,17.25c-.32,3-.66,6-1,9l-11,.25q-.24-14-.5-28a22.31,22.31,0,0,1,2.25-8.25c1.1-2.2,2.76-5.52,6.5-7.5a10.26,10.26,0,0,1,7.75-1.25,10,10,0,0,1,6,5.25c.2-3.68.52-8.69,1-14.75.39-4.74.74-8.42,3.5-10.5a7.28,7.28,0,0,1,2.75-1.25l6.25,11q5-5,10-10l3.25,2.25a8.68,8.68,0,0,0-2.5,4.5c-.61,3.34,1.44,5.54,3.25,11.5a43,43,0,0,1,1.25,5.25,63,63,0,0,1-1.5,11.5c-1.62,7.19-2.43,10.78-5.25,14a64.22,64.22,0,0,0-5.75,6.75c-.9,1.26-1.63,2.4-2,3-3,4.92-3.43,10.41-3.75,13.25A98.18,98.18,0,0,1,659.29,198.5Z"/><path class="cls-24" d="M676.73,117.46c.13,1.7.7,2.41,2,5.83.82,2.15,1.38,3.94,1.73,5.12.57,1.18,1.47,3,2.66,5.09,1.66,3,2.24,3.7,5.16,8.5,2.16,3.54,2.67,4.51,4.67,7.67a52,52,0,0,0,3.17,4.66c2,2.59,3.26,4.19,5.5,5.34,1.18.6,3.28,1.68,5.33.83a3.94,3.94,0,0,0,2.33-2.5c.16-.86-.15-1.82-2.33-4.33a51.53,51.53,0,0,0-4.16-4.18c-2.31-2.31-2.85-4.56-4.17-8-1-2.51-3-6.28-7.17-13.83-1.23-2.26-3.38-5.51-7.67-12-2.1-3.18-3.26-4.87-4.5-4.67C677.67,111.26,676.53,114.68,676.73,117.46Z"/><path class="cls-28" d="M625.46,195.83a13.34,13.34,0,0,1-.83-5.16,17.6,17.6,0,0,1,2.83-8.17c.84-1.49,1-1.5,2.67-4.17,1.1-1.81,2-3.34,2.5-4.38l7-.16v6.71a57.36,57.36,0,0,1-5,9.33c-2,3-3.32,4.34-5.17,5.17A9.77,9.77,0,0,1,625.46,195.83Z"/><path class="cls-28" d="M649.61,198.5a8.05,8.05,0,0,1-.32,2.67,8.6,8.6,0,0,1-1.66,3c-.85,1.06-1.68,2.81-3.34,6.33-2.61,5.54-2.48,7.39-2.33,8.33a8.51,8.51,0,0,0,.83,2.5,24.57,24.57,0,0,0,5.34-2.66,24,24,0,0,0,6.83-6.84,22.69,22.69,0,0,0,2.33-4.66l.1-8.67Z"/><circle class="cls-27" cx="679.59" cy="106.65" r="5.28"/><circle class="cls-27" cx="655.67" cy="105.03" r="3.67"/><path class="cls-27" d="M667.33,87.6a16.24,16.24,0,0,0,1.46,6.16,17.11,17.11,0,0,0,7.83,8,10.63,10.63,0,0,0-.39-8.84A10.33,10.33,0,0,0,667.33,87.6Z"/><path class="cls-29" d="M706.29,190.5a9.84,9.84,0,0,0-4.87-9.11,10.6,10.6,0,0,0-8.95-.6,19.11,19.11,0,0,0,1,4.38,21.15,21.15,0,0,0,5.83,8.5,22,22,0,0,0,4.11,2.86A9.76,9.76,0,0,0,706.29,190.5Z"/><path class="cls-30" d="M671,245.5l10.11,12.83-10.34,10.5a111.94,111.94,0,0,1-14.66-15.66c-1.83-2.5-3-5.17-5.34-10.5a5.16,5.16,0,0,1-.5-2.34c.16-2.91,3.25-4.9,5-6,3.11-1.94,5.74-2.54,10.84-3.66a65.26,65.26,0,0,1,11.5-1.67,62,62,0,0,1,8.66.17A31,31,0,0,0,708,236.83a15.55,15.55,0,0,1-4.33,9.34c-4.17,4.05-9.72,4.13-12.5,4.16-6.25.09-8.51-2.26-18-4.38a79.31,79.31,0,0,0-10.37-1.62"/><path class="cls-30" d="M685.45,249.61l-5.79,6.86-8.64-11Z"/><path class="cls-31" d="M654,229.5l5.16-14.17,14,5.34q-2.75,6.83-5.5,13.66Z"/><path class="cls-32" d="M670.08,227.39l-13.2-5.69"/><path class="cls-25" d="M696.37,223.2a25,25,0,0,1-3.67,8.5,11.43,11.43,0,0,1-3.5,3.67,9.77,9.77,0,0,1-6.33,1.17l-22.17.5a3.56,3.56,0,0,1-2.33-1.5,3.51,3.51,0,0,1,.17-3.84q3.06-.47,6.33-.83a140.46,140.46,0,0,1,16.67-.83l2.41.19,3.92-8.53Z"/><path class="cls-33" d="M695.86,225.08l-4.55,8.44a69.65,69.65,0,0,0,6.84,2.13,68,68,0,0,0,11.14,1.85c.14-3.58.13-7.44-.07-11.56-.17-3.46-.45-6.51-.76-9.11a39.49,39.49,0,0,0-4.71-13.57c-.8-1.38-1.91-3-3.79-3.43a5.76,5.76,0,0,0-4.5,1.34,7.39,7.39,0,0,0-2.33,4c-.72,2.74-2.79,7.67-8.5,17.33l14.5,3.33,1.66-15.33"/><path class="cls-27" d="M681.13,258.33l-1.47-1.86,4.38-5.18,6.52,4.4L675,277.35a35.69,35.69,0,0,0-.25-10q-.18-1.09-.42-2.13Z"/><path class="cls-28" d="M581.13,284.67v11.16l28.5-.16,25.66,25.66,6.17-14.66a106.25,106.25,0,0,0-11-14.34c-6.67-7.3-10.38-9.26-14-10a18.11,18.11,0,0,0-4.17-.33C602.42,282.21,588.15,283.82,581.13,284.67Z"/><path class="cls-28" d="M652,293.5A6.91,6.91,0,0,0,649,290a7.5,7.5,0,0,0-8,.77l-12.66,17.67L637,315Z"/><path class="cls-28" d="M573.6,293.19l.19,10.81,28-.33c3.29,4.5,5.89,8.23,7.67,10.83,3.32,4.85,4.26,6.46,6.67,9.5,3.81,4.84,5.72,7.25,8.66,9,4.27,2.53,8.58,3,12.17,3.33a40.49,40.49,0,0,0,8.23,0l.46-18,13-20.68L653.29,291l-9.16,17.83-11.5,5.5-11.5-10.66q-3.92-5.76-7.84-11.5a3.76,3.76,0,0,0-2.16-1.5,3.88,3.88,0,0,0-2.34.16Z"/><path class="cls-34" d="M573.65,296.22a8.77,8.77,0,0,1-1.74-.66,9.42,9.42,0,0,1-3.78-3.73,19.09,19.09,0,0,1-1.84-4.66c-.62-2.13-.7-3.26-1.66-3.84a3.07,3.07,0,0,0-2.34-.16l.84,10.83c.34.13,3.2,1.26,3.83,4a5.07,5.07,0,0,1,0,2.17h-4v4.5l10.83-.67C573.75,301.41,573.7,298.81,573.65,296.22Z"/><path class="cls-34" d="M581,286.25a7.77,7.77,0,0,1-1.57-.59,8.55,8.55,0,0,1-3.39-3.35,16.62,16.62,0,0,1-1.65-4.19c-.56-1.91-.63-2.92-1.5-3.44a2.71,2.71,0,0,0-2.09-.15l.75,9.73a5.61,5.61,0,0,1,3.44,3.59,4.39,4.39,0,0,1,0,1.95H571.4v4l9.89-1.51Q581.16,289.3,581,286.25Z"/><path class="cls-35" d="M615.79,305.83c-1.7-2.48-1.34-5.47.34-6.83a4.69,4.69,0,0,1,3.83-.67l14.83,11.5c.84-1.05,2.2-2.8,3.84-5,3.88-5.21,4.83-6.9,7.33-9,2.09-1.75,4.92-4.11,7.33-3.16,1.92.75,2.62,3.21,2.84,4.16a45.8,45.8,0,0,1-21.5,22.84,70.79,70.79,0,0,1-18.84-13.84Z"/><path class="cls-36" d="M613.71,297.13q4.38-6.13,8.74-12.29l12.09,8.85q-4.47,5.87-8.93,11.72Z"/><path class="cls-36" d="M629.75,299.35l-11.23-9"/><path class="cls-36" d="M504.09,253.13l8.73-12.3,12.09,8.86L516,261.41Z"/><path class="cls-36" d="M520.12,255.34l-11.22-9"/><path class="cls-34" d="M655.45,302.85c-2-.47-.69-7-4.5-10.67-2.17-2.09-5.19-2.48-7.34-2.5-1-3.41-.43-5.42.34-6.66,1.35-2.18,3.19-1.57,4.5-4,.73-1.37.93-3.08,1.33-6.5.08-.68.13-1.24.16-1.62a10.08,10.08,0,0,1,5.52,1.71c.87.61,2.75,2.15,4.11,6.41,2.44,7.68.73,16.46-.06,19.87C657.35,302.48,656.15,303,655.45,302.85Z"/><path class="cls-34" d="M499.79,308.5a85.73,85.73,0,0,1-1.5-12c-.43-7.95-.59-12.09,2-15.75,1-1.46,3.39-4.09,8.5-5.5a8.73,8.73,0,0,1,1.5-4.75c2-2.82,5.44-3.43,10-4.25a36,36,0,0,1,8.25-.5,28.56,28.56,0,0,1,8.34,1.39c7.38,2.6,8.16,7.93,15.16,10.11a17.74,17.74,0,0,0,6.25.75,16.39,16.39,0,0,1-2.25,7c-3.13,5.2-8.62,6.88-13.25,8.25a52,52,0,0,1-25.19.79L499,319v2.5l-13.23.25a7.44,7.44,0,0,1,3.5-4.75,7.29,7.29,0,0,1,5-.75,7.39,7.39,0,0,1,5.5-7.75Z"/><path class="cls-26" d="M539.81,261.05c-3.7-2-7.56-4.31-11.51-6.93q-2.82-1.86-5.41-3.74a3.78,3.78,0,0,1-.55-2.91,3.89,3.89,0,0,1,3.88-2.64,4.23,4.23,0,0,1,2.77,1.25l11,7.21Z"/><path class="cls-26" d="M522.24,275.86c-1.91-1.72-4-3.48-6.25-5.25q-2.68-2.1-5.25-3.88a3.88,3.88,0,0,1-.56-3,4,4,0,0,1,3.95-2.68,4.27,4.27,0,0,1,2.81,1.27l10.22,8.26Z"/><path class="cls-37" d="M541.9,276.36a12.1,12.1,0,0,1-7.16,3.5c-2.32.2-4.18-.47-6.76-1.33a27.2,27.2,0,0,1-5.74-2.67l5-6,6,2.83a95.21,95.21,0,0,1,1.5-9.5c2.28-10.93,5.18-15.45,6-16.66,2.73-4.08,5-5.38,6.5-6,.89-.37,4.19-1.7,6.66-.17,1.86,1.15,2.38,3.38,2.67,4.67,2.91,13.13,2.67,21.5,2.67,21.5-.11,3.73-.4,8.81-1.17,14.83l-16.17-5q2.82-7.44,5.5-15.5,1.68-5.08,3.17-10"/><path class="cls-28" d="M425.18,169.5l.75,12.75,15.25-20-10.5-1.5Z"/><path class="cls-28" d="M470.83,184.83l10.24,7.65-20,1.37-.59-9.24Z"/><path class="cls-28" d="M422.79,141a19.94,19.94,0,0,1-1-7c.21-5,2.3-8.32,6.25-14.5,3.79-5.92,5.75-8.9,8.5-9.5,3.94-.86,8.07,1.68,10.25,4.25,1.8,2.12,2,3.93,3.5,10,1.83,7.36,2.22,8.85,3.25,11.75a55,55,0,0,0,4,8.75Z"/><path class="cls-26" d="M459,143.33c-1-2.08-1.91-4.31-2.83-6.66-1-2.54-1.86-5-2.61-7.33l-6,.75L451.24,142Z"/><path class="cls-28" d="M434.27,117.59q-2.88,7.36-5.75,14.75l-11.5-6.5c1.79-2.71,7.31-11,12-17.5a9.09,9.09,0,0,1,2.25-2.25c3.68-2.59,9.55-2.61,13,.25a9,9,0,0,1,2.5,3.5,164.06,164.06,0,0,1,6.75,19.5l-6,.75-3-11.5"/><path class="cls-27" d="M425.42,168.87l5.5-8.75-10.25-5a34.29,34.29,0,0,1,9.25-3.75c12.56-3.05,23.25,2,27,4q1.6,14.61,3.19,29.24l11.56-.74q-.24-16.12-.5-32.25a15.4,15.4,0,0,0-3.75-8.25c-2.42-2.63-5.49-3.84-12-5a98.44,98.44,0,0,0-25.5-1.25,92.51,92.51,0,0,0-17,3.5c-5.11,1.54-7.21,2.65-8.75,4.75a11.82,11.82,0,0,0-1.41,10.72c1.49,4.15,5,6,9.66,8.53A39.94,39.94,0,0,0,425.42,168.87Z"/><path class="cls-26" d="M418.65,126.76a17.29,17.29,0,0,0-1.86,3.91,18.22,18.22,0,0,0-.16,10.5s3.19,10,19.66,11.83c1.82.2,3,0,3.84-.83a3.44,3.44,0,0,0,.66-3.67c-.65-1.39-2.19-1.41-6-2.67s-5.61-1.87-7.33-3.5a7.68,7.68,0,0,1-2.83-5.5,7.33,7.33,0,0,1,2.53-5.26Z"/><path class="cls-36" d="M456.22,157.38l-14.22,5-4.8-14.19,14-4.47Z"/><path class="cls-36" d="M444.37,146.35l4,13.8"/><circle class="cls-38" cx="407.86" cy="197.27" r="9.4" transform="translate(192.32 595.77) rotate(-87.4)"/><path class="cls-39" d="M398.55,190.26c1.44,1.33.29,4.94-2.58,8.07s-6.37,4.59-7.82,3.27-.28-4.94,2.59-8.07S397.11,188.94,398.55,190.26Z"/><path class="cls-40" d="M405,211c.22-2,.48-3.6.65-4.61a9.45,9.45,0,0,0,7.92-1.63A30.19,30.19,0,0,1,419,213.5c.3.74,5.71,14.7-1,22.33-.5.57-3.28,3.73-6.17,3.17-2.63-.51-3.92-3.82-5.09-6.86C403.61,224.18,404.39,216.28,405,211Z"/><path class="cls-41" d="M427,219.17c2.68-2.5,5.86-5.37,9.5-8.5,2.78-2.4,4.58-3.88,7.33-4.17a9.76,9.76,0,0,1,5.34,1c1.64.83,3.21,2.22,5,5.5a33.38,33.38,0,0,1,3.66,11.83,103.79,103.79,0,0,1,.84,18.5h-5.84a48.35,48.35,0,0,0,.34-14.33c-.87-6.7-2.7-9.43-3.67-10.67a9.74,9.74,0,0,0-5-3.83c-3.17-.87-6,.65-8.17,1.83a24.69,24.69,0,0,0-10.16,11.5c.27-2.89.55-5.77.83-8.66"/><path class="cls-41" d="M406,235.33a18.52,18.52,0,0,0-.67,5.17,17.76,17.76,0,0,0,4.34,11.67c.76.84,5.68,6.27,11.33,5.16,2.27-.44,3.72-1.75,5.83-3.66s3.79-4.07,6.5-8.84a121.21,121.21,0,0,0,5.84-11.66,38.53,38.53,0,0,1,4.5,15.83,38.1,38.1,0,0,1,0,4l9.66-4.17a42.71,42.71,0,0,0,1-13c-.16-2.06-1.47-19.07-9.83-21.33-3.27-.88-6.37.84-8.17,1.83-4.42,2.46-7.34,7.51-13,17.5-1.69,3-3.24,5.91-6.66,8-1.37.84-4.09,2.5-6.67,1.5S405.82,239.17,406,235.33Z"/><path class="cls-42" d="M443.63,253v4.33h19.16q-3.19-2.64-6.5-5.66c-1-.95-2-1.9-3-2.84Z"/><path class="cls-42" d="M467.46,251.33l-11.17.34-3-2.84.92-5.61,4.42.11Z"/><path class="cls-38" d="M403.63,226.33a22,22,0,0,0,0,7.67c.48,2.7,1.44,8.1,5.16,9.83s7.94-.94,9.85-2.09c7.07-4.27,8.62-11.39,11.15-23.07.18-.81.47-2.29-.33-3.17-1.12-1.23-4-.92-5.67.5a5.75,5.75,0,0,0-1.66,3c-2.39,7.86-2.53,9.65-4,11.33a8.68,8.68,0,0,1-5,2.67q-.35-3.75-.67-7.5Z"/><path class="cls-40" d="M410.79,228.67a20.71,20.71,0,0,0,4.67-1c-.27-4.06-1.41-9.33-5.17-13.5C409.2,213,407,210.45,405,211c-1.79.5-2.44,3.2-3,5.5a25.75,25.75,0,0,0-.17,11A21,21,0,0,0,410.79,228.67Z"/><path class="cls-39" d="M400.18,202.67c.6.18,1.15-.23,4.95-4,3.11-3.1,3.7-3.77,4.16-5a11.91,11.91,0,0,0,.67-4,11.2,11.2,0,0,0-.17-1.61,8.52,8.52,0,0,0-5.17.39A10.6,10.6,0,0,0,398.5,198C398.5,199.43,398.84,202.29,400.18,202.67Z"/><circle class="cls-43" cx="401.96" cy="282.67" r="8.33"/><path class="cls-44" d="M391.29,276.67a3.84,3.84,0,1,1-3.84-3.84A3.84,3.84,0,0,1,391.29,276.67Z"/><path class="cls-45" d="M386.63,318.17l-6.84-4.84,9.84-16.66a21.45,21.45,0,0,0,8.33,0,21.18,21.18,0,0,0,8.33-3.67,33.9,33.9,0,0,1,19.84,9.33l-3,7.67-10.5-6.83,1.83,13.5-16.33,3.16-6-8.33Q389.37,314.83,386.63,318.17Z"/><path class="cls-46" d="M397.79,325.67a21.23,21.23,0,0,0-.83,14.5,19.37,19.37,0,0,0,2.83,5.5H467v-9.18c-1.78-.28-4.5-.7-7.83-1.16-16.4-2.25-24.49-2.23-33.67-3.33A137.82,137.82,0,0,1,397.79,325.67Z"/><path class="cls-46" d="M414.46,316.67c1.33-1.21,8.7-7.64,18.27-6.47a21.64,21.64,0,0,1,7.9,2.63c4.07,2.34,6.19,5.41,8.16,8.34a44.93,44.93,0,0,1,6.68,15.9l-12.87.57a116.38,116.38,0,0,1-7.14-10c-.18-.3-.61-1.05-1.33-1.17-1.14-.18-2.3,1.29-3.67,3.33a64.94,64.94,0,0,0-4.5,7.84l-27.17-6.5-.66-11.34Z"/><path class="cls-43" d="M361,345.17a5.16,5.16,0,0,1-.5-4.17c.64-1.52,2-2.05,3.5-3,1.85-1.2,3.12-3.14,5.67-7,2.28-3.47,2.52-4.66,5-9.17,1.11-2,2.81-5,5.16-8.5l6.84,4.84c-1.8,3.61-3.44,6.55-4.67,8.66a96.89,96.89,0,0,1-7.33,11,45.74,45.74,0,0,1-5.34,5.5c-1.93,1.71-3.19,2.55-4.83,2.67A6.4,6.4,0,0,1,361,345.17Z"/><path class="cls-43" d="M426.13,302.33l2.83,2a54.13,54.13,0,0,0,5.33-14.66c.29-1.38.51-2.72.67-4h5.33a45.56,45.56,0,0,1-3.68,25.39,13.78,13.78,0,0,0-6.32-1.56,13.48,13.48,0,0,0-5.5,1.17l-1.66-.67Z"/><path class="cls-44" d="M390.6,296.83c.08-2.16.06-4,0-5.33-.14-5.1-.65-6.94,0-10.33.41-2.14.65-3.4,1.66-4.5,2.88-3.13,8.75-1.55,9.5-1.34a7.93,7.93,0,0,1,.67,3.34,8.34,8.34,0,0,1-2,5.16,7.78,7.78,0,0,1,4.5,2.84,7.9,7.9,0,0,1,1.33,6.33,21.15,21.15,0,0,1-15.69,3.83Z"/><rect class="cls-36" x="429.13" y="269.67" width="8.66" height="16"/><rect class="cls-36" x="437.79" y="269.67" width="8.66" height="16"/><path class="cls-36" d="M467,336.49l7.5-8v19l-7.5-1.83Z"/><path class="cls-47" d="M322,164a53.79,53.79,0,0,0,1.59,16.66c1.34,5.17,2.38,8.81,5.66,11,2.42,1.61,4.94,1.63,9.67,1.66,6.61,0,8.16-1.49,11.47-.56,2.35.66,5.39,2.51,8.2,7.9l12-24.67a15.42,15.42,0,0,0-3.53-6.42A16.52,16.52,0,0,0,359,165c-5.93-1.59-8,.74-12.33-1-.91-.36-2.82-1.26-6.67-6a65.11,65.11,0,0,1-9.33-15.67,22.7,22.7,0,0,0-18.75,18.89l12.87,3.53,2.88-14.08"/><rect class="cls-36" x="348.83" y="166.4" width="8.66" height="16" transform="translate(99.09 475.37) rotate(-76.11)"/><rect class="cls-36" x="350.91" y="157.99" width="8.66" height="16" transform="translate(108.83 471) rotate(-76.11)"/><path class="cls-26" d="M303.79,197c1.13-1.56,1.85-4.23,3.25-9.5,1.77-6.63,1.1-5.85,2.5-10.75,1.2-4.16,2.11-6.24,3.25-11.25.37-1.62.63-2.95.79-3.81L322,164c-1.31,5.76-2.52,10.67-3.5,14.49-1.78,7-2.41,8.91-3.5,11.25-2,4.38-2.65,3.76-4.75,8.5-.77,1.75-1.42,3.5-3.25,5-.72.6-2.64,2.17-4.5,1.5a3.18,3.18,0,0,1-2-2.25C300.18,200.64,302.13,199.31,303.79,197Z"/><circle class="cls-26" cx="324.23" cy="133.93" r="9.4" transform="translate(175.74 451.76) rotate(-87.4)"/><path class="cls-48" d="M330.46,126.9c.25,1-1.16,1.57-4.67,5.85-2.26,2.76-3.39,4.14-3.75,5.5-1,3.92,2,5.79,1,9.25-.74,2.49-2.75,2.95-5,5.18s-4.58,5.84-5.21,12.82c-5-2.46-6-5.56-6.25-6.5-1.09-4.41,2.29-9.38,4.75-13,1.76-2.58,2.35-2.7,3-4.5,1.34-3.71-.35-5.54.71-9.37a10.73,10.73,0,0,1,4.2-6.13C323.45,123.29,330,124.84,330.46,126.9Z"/><path class="cls-26" d="M367.79,216.75a4.87,4.87,0,0,0,4-.75,4.69,4.69,0,0,0,1.75-2.75q-4.37-12.75-8.75-25.5-3.07,6.47-6.16,12.92Z"/><path class="cls-26" d="M364.79,187.75l3.75-8.5q4.75,15.25,9.5,30.5a4.15,4.15,0,0,1-1.25,2.5h0c-.39.74-1.48,1.08-3.25,1Q369.17,200.5,364.79,187.75Z"/><path class="cls-28" d="M368.29,221.5c-.16-1.58-.33-3.17-.5-4.75a4.87,4.87,0,0,0,4-.75,4.69,4.69,0,0,0,1.75-2.75c1.25,1,3.09,2.55,5.25,4.5,7.94,7.15,7.67,8.57,7.5,9-.23.61-1.09,1.38-4.25,1.5Z"/><path class="cls-28" d="M389.79,222c-2.16-3-4.09-5.35-5.5-7-3.59-4.22-5.38-5.68-6.25-5.25-.65.33-.27,1.49-1.25,2.5a4.22,4.22,0,0,1-3.25,1,25.42,25.42,0,0,1,6.5,5.5c2.47,3,3.25,5.37,5.28,5.65C387.05,224.65,388.7,223.21,389.79,222Z"/><path class="cls-24" d="M666,118.75l-6.25-11a18.26,18.26,0,0,0,10.84.92,17.18,17.18,0,0,0,3.72-1.37c.15.89.31,1.79.46,2.69Z"/><circle class="cls-24" cx="295.17" cy="219.84" r="8.88"/><path class="cls-46" d="M314.63,305c.55,2.33,1.11,4.67,1.66,7h20.27a27.07,27.07,0,0,1-11-8.75,26.54,26.54,0,0,1-2.25-3.75Z"/><path class="cls-46" d="M327.79,286.25v7.27h19.5a37.14,37.14,0,0,1-10.75-8.27,38,38,0,0,1-2.75-3.5Z"/><path class="cls-49" d="M326.46,286l8-5-10.17-14.17L308,258.5l-14.17,6.67a74,74,0,0,1,18.5,7.66,44.92,44.92,0,0,1,6.84,4.84A42.18,42.18,0,0,1,326.46,286Z"/><path class="cls-46" d="M270.79,262.25a66.43,66.43,0,0,1,2-11.75c1.61-6,3.2-11.76,8-16.75,2-2.09,4.36-4.47,8.25-5.25a14.33,14.33,0,0,1,9.75,1.75,34.37,34.37,0,0,1,7.25,19.5c.25.53,2.44,5.47-.25,10.25a11.12,11.12,0,0,1-5.5,4.75,108.2,108.2,0,0,0-14.75-2.25A109.5,109.5,0,0,0,270.79,262.25Z"/><path class="cls-24" d="M291.29,254.5l7-2c.42,1.41.84,2.83,1.25,4.25q7.17,2.83,15,5.5c1.26.42,2.51.84,3.76,1.24a3.39,3.39,0,0,1,2,4.73l0,.07a3.4,3.4,0,0,1-4.45,1.58c-10-4.57-16.22-6.93-19.52-7.62a6.53,6.53,0,0,1-3.75-2C291.1,258.53,291.09,256.16,291.29,254.5Z"/><path class="cls-24" d="M300,248.5l7-1c.37,1.29.73,2.59,1.1,3.88l4.56.07a3,3,0,0,1,3,3.14v.06a3,3,0,0,1-3.44,2.87L300,255.78Z"/><path class="cls-24" d="M317.29,248.75l-2.83,6.16,15,4.34,1.83-6.5Z"/><path class="cls-24" d="M325.29,266.08l4.17-6.83-15-4.34-2.17,5.17Z"/><path class="cls-49" d="M270.79,262.25a15.52,15.52,0,0,0-.83,6.42,10.27,10.27,0,0,0,1.67,5.5c1.93,2.63,5.14,3.21,7.66,3.66,3.13.57,4.15,0,9.9.19,2.2.07,4,.21,5.1.31L314.63,305q5-3.42,10-6.83a60.67,60.67,0,0,0-17-27,56.9,56.9,0,0,0-5.5-4.34l-1.84-2.08a62.85,62.85,0,0,0-19.16-3.25A61.73,61.73,0,0,0,270.79,262.25Z"/><path class="cls-27" d="M521.79,158.83c-1.92-2.42-1.23-4.39-.83-16.83.29-8.91,0-10.27,1.5-12.33a12,12,0,0,1,12.67-4.34c3.55,1.07,7.3,4.21,7.66,7.67.16,1.54-.37,3,.67,4.67a6.72,6.72,0,0,0,2.67,2.16c2.6,1.61,4,3.83,5.33,6,1.23,2,4.09,6.59,2.5,11-1.14,3.15-4,4.69-5.5,5.5-5.41,2.92-11.12,1.73-16.17.67C526.54,161.8,523.67,161.19,521.79,158.83Z"/><path class="cls-28" d="M530.79,194.75l-1.5,18.75a62.83,62.83,0,0,0,18-2.25c5.73-1.59,9.22-2.62,12-6,2.6-3.16,4.52-8.29,3-13-.88-2.73-3-5.7-10.5-9.25-5.75-2.74-22.75-10.84-41.5-3.75-3.48,1.32-15.66,5.92-16,13.25-.17,3.87,3,7.17,6,10.25a34.25,34.25,0,0,0,13.5,8.5q3.63-9.37,7.25-18.75"/><circle class="cls-50" cx="531.11" cy="136.1" r="9.34" transform="translate(-4.83 20.48) rotate(-2.2)"/><path class="cls-51" d="M498.45,163.75l5.75-4.25,6.75,8.25a56.74,56.74,0,0,1,9-13c4.86-5.26,7.61-6.19,8.75-6.5a15.11,15.11,0,0,1,9.75.75c4.5,1.93,6.63,5.51,9,9.5a33.92,33.92,0,0,1,4.5,13.75c.47,3.85.72,6.16-.5,8.75-1.93,4.08-6,5.74-7.5,6.25l-4.75-8a35.71,35.71,0,0,0-20.13-2.31,15.38,15.38,0,0,1-3.12.81,12.44,12.44,0,0,1-7.5-.75c-3.1-1.52-4.75-3.93-6.5-6.5A30.66,30.66,0,0,1,498.45,163.75Z"/><path class="cls-51" d="M522.39,162.42l-4.6,14.83"/><path class="cls-51" d="M539.2,179.25l5-3.85-6-14.4"/><line class="cls-32" x1="509.08" y1="189.78" x2="549.7" y2="197.27"/><path class="cls-27" d="M518.54,217l-3-10,4.5-9.5,10.36,2.14-.94,11.83a7.66,7.66,0,0,0-3.67,2c-1.18,1.22-1.21,2.2-2.25,3C522.75,217.11,521.32,217.65,518.54,217Z"/><path class="cls-50" d="M498.45,163.75,493.24,154a3.45,3.45,0,0,1,1.07-4.46l.06,0a3.46,3.46,0,0,1,5,1.19l4.81,8.85Z"/><path class="cls-50" d="M544.2,186.33l-9.79,5.2a3.45,3.45,0,0,1-4.46-1.07l0-.06a3.46,3.46,0,0,1,1.19-5l8.85-4.8C541.37,182.49,542.78,184.41,544.2,186.33Z"/><path class="cls-27" d="M521.83,135c.27.2,1.23-.59,3.13-2.19s3.47-3.11,4.5-4.16a31,31,0,0,0,11,7.43,9.35,9.35,0,0,0-14.67-7.67C522.58,130.64,521.31,134.62,521.83,135Z"/></g></svg>